<svg width="49" height="15" viewBox="0 0 49 15" fill="none" xmlns="http://www.w3.org/2000/svg">
<path fill-rule="evenodd" clip-rule="evenodd" d="M19.714 0.284058L17.2373 14.7852H21.1971L23.6755 0.284058H19.714Z" fill="#00579F"/>
<path fill-rule="evenodd" clip-rule="evenodd" d="M35.5652 0.640993C34.7803 0.347104 33.5506 0.0321045 32.0146 0.0321045C28.1005 0.0321045 25.3428 1.99877 25.3194 4.81738C25.2974 6.90099 27.2881 8.06349 28.7906 8.7571C30.3325 9.46766 30.8509 9.92099 30.8436 10.5557C30.8339 11.5277 29.6122 11.9718 28.4735 11.9718C26.888 11.9718 26.0458 11.7521 24.7448 11.2107L24.2342 10.9802L23.6782 14.2263C24.6037 14.631 26.3145 14.9818 28.091 14.9999C32.2552 14.9999 34.9585 13.0557 34.9894 10.0457C35.0042 8.39627 33.9487 7.14072 31.6633 6.10599C30.2787 5.43516 29.4307 4.98738 29.4396 4.30822C29.4396 3.70544 30.1574 3.06099 31.7081 3.06099C33.0038 3.04099 33.9421 3.32266 34.6732 3.61655L35.0281 3.78377L35.5652 0.640993Z" fill="#00579F"/>
<path fill-rule="evenodd" clip-rule="evenodd" d="M40.8385 9.64436C41.1662 8.80881 42.4168 5.59075 42.4168 5.59075C42.3934 5.62936 42.742 4.75131 42.9422 4.20686L43.21 5.45714C43.21 5.45714 43.9684 8.91853 44.1268 9.64436H40.8385ZM45.7235 0.297974H42.6624C41.7141 0.297974 41.0044 0.556029 40.5879 1.50047L34.7046 14.7896H38.8643C38.8643 14.7896 39.5447 13.0027 39.6984 12.6105C40.1531 12.6105 44.1942 12.6166 44.7719 12.6166C44.8905 13.1241 45.2538 14.7896 45.2538 14.7896H48.9296L45.7235 0.297974Z" fill="#00579F"/>
<path fill-rule="evenodd" clip-rule="evenodd" d="M13.915 0.294556L10.0365 10.1832L9.62333 8.17344C8.90141 5.85678 6.65187 3.34706 4.13672 2.09067L7.68309 14.7723L11.8745 14.7676L18.1112 0.294556H13.915Z" fill="#00579F"/>
<path fill-rule="evenodd" clip-rule="evenodd" d="M6.43849 0.285645H0.0506705L0 0.587311C4.96988 1.78759 8.25817 4.68842 9.62321 8.17342L8.23423 1.50981C7.99424 0.591756 7.29877 0.317589 6.43849 0.285645Z" fill="#F9A51A"/>
</svg>
